<svg xmlns="http://www.w3.org/2000/svg" xmlns:xlink="http://www.w3.org/1999/xlink" width="1440" zoomAndPan="magnify" viewBox="0 0 297.75 419.25" height="2560" preserveAspectRatio="xMidYMid meet" version="1.0"><defs><filter x="0%" y="0%" width="100%" height="100%" id="e2177ec039"><feColorMatrix values="0 0 0 0 1 0 0 0 0 1 0 0 0 0 1 0 0 0 1 0" color-interpolation-filters="sRGB"/></filter><clipPath id="ace71f99ee"><path d="M 9 52 L 297.359375 52 L 297.359375 418.5 L 9 418.5 Z M 9 52 " clip-rule="nonzero"/></clipPath><mask id="6c2f4349cd"><g filter="url(#e2177ec039)"><rect x="-29.775" width="357.3" fill="#000000" y="-41.925" height="503.1" fill-opacity="0.8"/></g></mask><clipPath id="ba219e8978"><path d="M 141 254 L 174 254 L 174 274 L 141 274 Z M 141 254 " clip-rule="nonzero"/></clipPath><clipPath id="637e614d61"><path d="M -8.859375 192.3125 L 765.710938 0.0507812 L 1167.910156 1620.394531 L 393.34375 1812.65625 Z M -8.859375 192.3125 " clip-rule="nonzero"/></clipPath><clipPath id="5c644680dc"><path d="M -8.859375 192.3125 L 765.710938 0.0507812 L 1167.910156 1620.394531 L 393.34375 1812.65625 Z M -8.859375 192.3125 " clip-rule="nonzero"/></clipPath><clipPath id="3ba8cec204"><path d="M 92 262 L 230 262 L 230 335 L 92 335 Z M 92 262 " clip-rule="nonzero"/></clipPath><clipPath id="e169d9b472"><path d="M -8.859375 192.3125 L 765.710938 0.0507812 L 1167.910156 1620.394531 L 393.34375 1812.65625 Z M -8.859375 192.3125 " clip-rule="nonzero"/></clipPath><clipPath id="93a2fb9a14"><path d="M -8.859375 192.3125 L 765.710938 0.0507812 L 1167.910156 1620.394531 L 393.34375 1812.65625 Z M -8.859375 192.3125 " clip-rule="nonzero"/></clipPath><clipPath id="d64cce6340"><path d="M 197 163 L 222 163 L 222 193 L 197 193 Z M 197 163 " clip-rule="nonzero"/></clipPath><clipPath id="965075d72e"><path d="M -8.859375 192.3125 L 765.710938 0.0507812 L 1167.910156 1620.394531 L 393.34375 1812.65625 Z M -8.859375 192.3125 " clip-rule="nonzero"/></clipPath><clipPath id="fe582de78f"><path d="M -8.859375 192.3125 L 765.710938 0.0507812 L 1167.910156 1620.394531 L 393.34375 1812.65625 Z M -8.859375 192.3125 " clip-rule="nonzero"/></clipPath><clipPath id="032344af53"><path d="M 190 174 L 228 174 L 228 211 L 190 211 Z M 190 174 " clip-rule="nonzero"/></clipPath><clipPath id="6b54c309f5"><path d="M -8.859375 192.3125 L 765.710938 0.0507812 L 1167.910156 1620.394531 L 393.34375 1812.65625 Z M -8.859375 192.3125 " clip-rule="nonzero"/></clipPath><clipPath id="ffa16f95d7"><path d="M -8.859375 192.3125 L 765.710938 0.0507812 L 1167.910156 1620.394531 L 393.34375 1812.65625 Z M -8.859375 192.3125 " clip-rule="nonzero"/></clipPath><clipPath id="fb83cf2649"><path d="M 83 338 L 272 338 L 272 366.5 L 83 366.5 Z M 83 338 " clip-rule="nonzero"/></clipPath><clipPath id="d144b31c69"><path d="M -8.859375 192.3125 L 765.710938 0.0507812 L 1167.910156 1620.394531 L 393.34375 1812.65625 Z M -8.859375 192.3125 " clip-rule="nonzero"/></clipPath><clipPath id="020c621f55"><path d="M -8.859375 192.3125 L 765.710938 0.0507812 L 1167.910156 1620.394531 L 393.34375 1812.65625 Z M -8.859375 192.3125 " clip-rule="nonzero"/></clipPath><clipPath id="c6e70fe188"><path d="M 66 135 L 288.359375 135 L 288.359375 366.5 L 66 366.5 Z M 66 135 " clip-rule="nonzero"/></clipPath><clipPath id="b86afcac3d"><path d="M -8.859375 192.3125 L 765.710938 0.0507812 L 1167.910156 1620.394531 L 393.34375 1812.65625 Z M -8.859375 192.3125 " clip-rule="nonzero"/></clipPath><clipPath id="2c908cad64"><path d="M -8.859375 192.3125 L 765.710938 0.0507812 L 1167.910156 1620.394531 L 393.34375 1812.65625 Z M -8.859375 192.3125 " clip-rule="nonzero"/></clipPath><clipPath id="0886c78eb4"><rect x="0" width="289" y="0" height="367"/></clipPath></defs><g clip-path="url(#ace71f99ee)"><g mask="url(#6c2f4349cd)"><g transform="matrix(1, 0, 0, 1, 9, 52)"><g clip-path="url(#0886c78eb4)"><g clip-path="url(#ba219e8978)"><g clip-path="url(#637e614d61)"><g clip-path="url(#5c644680dc)"><path fill="#31496a" d="M 143.148438 257.753906 C 141.6875 256.96875 140.269531 254.730469 141.773438 254.070312 C 152.863281 257.527344 163.3125 263.039062 172.488281 270.128906 C 173.417969 270.875 174.417969 272.121094 173.726562 273.039062 C 173.078125 273.890625 171.695312 273.429688 170.765625 272.914062 C 166.101562 270.335938 161.382812 267.769531 156.707031 265.136719 C 152.152344 262.761719 147.675781 260.25 143.148438 257.753906 Z M 143.148438 257.753906 " fill-opacity="1" fill-rule="nonzero"/></g></g></g><g clip-path="url(#3ba8cec204)"><g clip-path="url(#e169d9b472)"><g clip-path="url(#93a2fb9a14)"><path fill="#31496a" d="M 216.035156 320.304688 C 221.769531 323.707031 227.875 327.710938 229.746094 334.085938 C 186.496094 306.425781 140.523438 283.0625 92.683594 264.476562 C 92.351562 261.972656 96.273438 261.800781 98.625 262.710938 C 139.230469 278.785156 178.5 298.066406 216.035156 320.304688 Z M 216.035156 320.304688 " fill-opacity="1" fill-rule="nonzero"/></g></g></g><g clip-path="url(#d64cce6340)"><g clip-path="url(#965075d72e)"><g clip-path="url(#fe582de78f)"><path fill="#31496a" d="M 220.417969 192.765625 C 212.839844 184.703125 205.589844 176.328125 198.621094 167.710938 C 197.476562 166.328125 196.652344 163.714844 198.347656 163.125 C 205.777344 170.363281 212.703125 178.125 219.007812 186.390625 C 220.492188 188.203125 221.910156 190.898438 220.417969 192.765625 Z M 220.417969 192.765625 " fill-opacity="1" fill-rule="nonzero"/></g></g></g><g clip-path="url(#032344af53)"><g clip-path="url(#6b54c309f5)"><g clip-path="url(#ffa16f95d7)"><path fill="#31496a" d="M 222.636719 208.652344 C 214.65625 200.804688 206.671875 192.957031 198.632812 185.125 C 196.339844 182.820312 194 180.582031 191.855469 178.183594 C 190.8125 177.007812 190.113281 174.652344 191.65625 174.382812 C 192.320312 174.277344 192.941406 174.695312 193.457031 175.144531 C 205.722656 185.433594 217.125 196.859375 227.371094 209.203125 C 226.960938 211.027344 224.054688 209.96875 222.636719 208.652344 Z M 222.636719 208.652344 " fill-opacity="1" fill-rule="nonzero"/></g></g></g><g clip-path="url(#fb83cf2649)"><g clip-path="url(#d144b31c69)"><g clip-path="url(#020c621f55)"><path fill="#31496a" d="M 83.304688 338.304688 C 116.71875 381.222656 165.769531 411.640625 219.046875 422.5 C 231.339844 425.023438 243.769531 426.476562 256.160156 428 C 261.261719 428.632812 266.414062 429.25 271.5 429.824219 C 201.859375 433.375 131.257812 402.273438 86.914062 348.445312 C 84.59375 345.574219 82.121094 341.875 83.304688 338.304688 Z M 83.304688 338.304688 " fill-opacity="1" fill-rule="nonzero"/></g></g></g><g clip-path="url(#c6e70fe188)"><g clip-path="url(#b86afcac3d)"><g clip-path="url(#2c908cad64)"><path fill="#31496a" d="M 457.507812 922.855469 C 435.300781 919.054688 412.394531 917.785156 391.425781 909.484375 C 363.558594 898.410156 341.8125 875.875 315.210938 862.015625 C 288.617188 848.210938 250.601562 846.265625 233.433594 870.875 C 256.207031 828.09375 312.113281 811.570312 359.585938 821.285156 C 407.0625 830.996094 447.4375 861.4375 483.65625 893.660156 C 519.820312 925.894531 554.265625 961.144531 596.886719 984.1875 C 548.308594 931.125 499.796875 878.101562 451.21875 825.035156 C 422.359375 793.519531 392.796875 760.792969 378.589844 720.464844 C 357.3125 659.992188 374.148438 593.507812 391.097656 531.648438 C 442.660156 595.582031 434.523438 687.152344 454.429688 766.878906 C 473.097656 841.621094 519.121094 909.171875 581.835938 953.898438 C 540.402344 893.945312 529.683594 813.953125 553.761719 745.152344 C 559.648438 728.34375 550.421875 710.402344 541.34375 695.125 C 492.113281 611.875 439.480469 530.675781 383.519531 451.796875 C 355.472656 476.117188 316.566406 487.496094 279.800781 482.023438 C 264.125 512.183594 248.636719 549.59375 267.003906 578.199219 C 248.957031 569.863281 233.582031 555.859375 223.570312 538.6875 C 188.25 560.789062 136.351562 549.933594 112.867188 515.527344 C 137.511719 520.332031 164.441406 509.566406 179.035156 489.160156 C 147.398438 506.210938 103.589844 505.703125 79.632812 478.886719 C 55.675781 452.070312 68.238281 399.179688 103.832031 394.367188 C 84.648438 368.722656 72.0625 338.164062 67.527344 306.46875 C 65.605469 292.921875 65.519531 277.769531 74.144531 267.121094 C 93.191406 243.597656 135.351562 260.839844 158.976562 241.871094 C 157.738281 205.390625 177.527344 168.867188 208.839844 150.058594 C 240.152344 131.25 281.675781 130.886719 313.292969 149.191406 C 330.539062 159.164062 352.039062 151.988281 371.605469 148.394531 C 391.21875 144.734375 416.957031 148.863281 422.082031 168.113281 C 426.8125 185.789062 449.875 189.550781 464.199219 200.9375 C 482.535156 215.527344 485.140625 243.621094 476.644531 265.445312 C 468.097656 287.28125 450.914062 304.421875 434.179688 320.816406 C 453.722656 316.425781 473.996094 311.96875 493.566406 316.25 C 513.125 320.476562 531.769531 336.082031 532.699219 356.023438 C 507.832031 354.726562 482.664062 364.707031 465.382812 382.621094 C 499.113281 374.476562 535.925781 406.550781 532.542969 441.074219 C 484.390625 424.460938 430.429688 425.207031 382.789062 443.296875 C 449.238281 530.378906 508.300781 623.144531 559.121094 720.199219 C 599.820312 677.390625 660.742188 654.679688 719.574219 660.367188 C 663.585938 693.921875 622.683594 751.667969 609.589844 815.613281 C 607.625 825.296875 610.503906 835.273438 613.367188 844.738281 C 652.726562 975.042969 692.066406 1105.292969 731.425781 1235.597656 C 728.15625 1134.671875 761.933594 1032.941406 824.996094 954.007812 C 845.507812 928.28125 870.132812 904.292969 901.09375 893.101562 C 932.054688 881.910156 970.445312 886.519531 992.308594 911.15625 C 941.808594 906.847656 891.132812 944.890625 881.238281 994.652344 C 864.878906 1076.707031 823.0625 1153.476562 763.015625 1211.660156 C 754.167969 1220.238281 744.558594 1229.003906 740.925781 1240.765625 C 736.246094 1255.953125 742.605469 1272.078125 749.078125 1286.566406 C 808.882812 1421.21875 885.195312 1548.042969 967.902344 1670.058594 C 865.894531 1542.773438 785.378906 1398.316406 730.636719 1244.699219 C 702.964844 1167.019531 680.617188 1084.625 627.914062 1021.203125 C 585.070312 969.707031 523.542969 934.167969 457.507812 922.855469 M 232.242188 524.753906 C 231.246094 520.054688 230.945312 515.132812 232.320312 510.480469 C 234.726562 502.351562 241.960938 496.300781 244.195312 488.160156 C 244.316406 487.726562 244.386719 487.308594 244.332031 486.863281 C 244.1875 485.578125 242.683594 484.855469 241.425781 485.113281 C 240.15625 485.3125 239.164062 486.191406 238.242188 487.109375 C 227.484375 497.480469 222.222656 513.332031 224.617188 528.082031 C 224.914062 529.964844 225.328125 531.871094 225.960938 533.726562 C 226.972656 536.636719 228.457031 539.371094 230.074219 541.960938 C 235.753906 550.953125 243.386719 558.773438 252.308594 564.605469 C 250.082031 560.960938 247.867188 557.371094 245.695312 553.714844 C 240.164062 544.628906 234.496094 535.230469 232.242188 524.753906 M 122.371094 520.699219 C 137.691406 526.148438 154.855469 522.351562 170.734375 525.652344 C 176.914062 526.933594 183.363281 529.296875 189.386719 527.402344 C 191.511719 526.699219 193.464844 525.527344 195.359375 524.367188 C 201.101562 520.871094 206.84375 517.378906 212.585938 513.882812 C 215.730469 511.953125 219.019531 509.929688 220.867188 506.710938 C 223.878906 501.480469 222.292969 494.632812 225.171875 489.320312 C 225.496094 488.777344 225.847656 488.117188 225.648438 487.535156 C 225.296875 486.585938 224.039062 486.613281 223.050781 486.800781 C 215.917969 488.167969 208.839844 489.523438 201.707031 490.890625 C 192.921875 492.554688 183.53125 494.539062 177.226562 500.875 C 162.578125 515.488281 140.433594 522.136719 120.210938 518.015625 C 119.640625 519.191406 121.113281 520.265625 122.371094 520.699219 M 355.5 281.257812 C 374.191406 268.804688 388.875 250.386719 396.8125 229.332031 C 398.917969 223.695312 400.675781 217.800781 404.121094 212.921875 C 407.617188 208.027344 413.390625 204.183594 419.339844 205.003906 C 427.496094 206.140625 432.015625 214.847656 435.183594 222.511719 C 438.023438 229.335938 440.8125 236.171875 443.65625 242.996094 C 442.105469 233.265625 442.203125 223.238281 443.882812 213.570312 C 450.1875 237.8125 444.976562 263.359375 444.988281 288.417969 C 444.984375 290.949219 445.398438 294.007812 447.683594 295.105469 C 458.664062 282.839844 469.601562 269.949219 474.878906 254.386719 C 480.15625 238.824219 478.414062 219.769531 466.511719 208.410156 C 450.382812 192.988281 423.574219 197.285156 404.042969 186.441406 C 398.785156 183.550781 392.648438 179.441406 387.378906 182.300781 C 385.714844 183.230469 384.425781 184.757812 383.300781 186.246094 C 372.953125 200.136719 368.960938 218.542969 372.636719 235.449219 C 374.640625 244.667969 378.3125 255.765625 371.699219 262.464844 C 371.753906 253.660156 371.472656 244.878906 370.839844 236.070312 C 359.007812 247.683594 353.171875 264.9375 355.5 281.257812 M 337.285156 388.722656 C 346.734375 384.421875 355.433594 378.472656 362.816406 371.179688 C 358.828125 362.972656 354.875 354.699219 350.886719 346.492188 C 357.683594 352.105469 362.742188 359.757812 365.339844 368.136719 C 374.898438 363.8125 383.8125 358.035156 391.683594 351.082031 C 389.28125 330.523438 383.40625 310.3125 374.355469 291.695312 C 384.824219 302.605469 391.292969 317.324219 392.214844 332.382812 C 392.558594 338.160156 392.734375 345.128906 397.722656 348.085938 C 402.230469 347.484375 405.550781 343.269531 406.585938 338.875 C 407.621094 334.480469 406.875 329.835938 406.109375 325.371094 C 402.894531 306.625 399.625 287.894531 396.40625 269.152344 C 405.304688 289.015625 409.800781 310.832031 409.398438 332.601562 C 409.367188 336.171875 410.792969 341.222656 414.257812 340.363281 C 416.152344 339.890625 417.0625 337.769531 417.621094 335.847656 C 426.203125 307.21875 427.542969 276.484375 421.488281 247.234375 C 429.449219 259.859375 430.167969 275.714844 429.140625 290.570312 C 428.03125 306.019531 425.289062 321.355469 420.988281 336.21875 C 426.316406 337.3125 430.316406 331.433594 432.34375 326.390625 C 446.664062 290.761719 444.121094 248.800781 425.640625 215.109375 C 424.265625 212.574219 422.5 209.851562 419.683594 209.171875 C 416.019531 208.300781 412.578125 211.339844 410.285156 214.378906 C 400.835938 227.011719 397.585938 243.339844 388.703125 256.40625 C 379.480469 269.960938 364.894531 278.8125 353.65625 290.742188 C 342.421875 302.667969 334.542969 320.949219 342.582031 335.277344 C 347.320312 343.699219 341.671875 353.835938 337.113281 362.328125 C 332.429688 370.789062 329.488281 383.015625 337.285156 388.722656 M 257.945312 372.667969 C 261.710938 370.925781 266.089844 372.136719 270.082031 373.390625 C 274.015625 374.65625 278.355469 375.933594 282.230469 374.398438 C 286.101562 372.863281 288.140625 366.953125 284.828125 364.5 C 278.945312 363.71875 273.226562 361.515625 268.308594 358.140625 C 272.476562 355.953125 277.398438 358.640625 281.902344 359.878906 C 286.417969 361.171875 293.132812 359.046875 292.382812 354.40625 C 287.464844 349.648438 282.480469 344.847656 277.566406 340.09375 C 284.558594 340.710938 291.085938 345.011719 294.457031 351.1875 C 298.070312 350.691406 300.609375 347.015625 300.910156 343.378906 C 301.214844 339.738281 299.867188 336.164062 298.359375 332.863281 C 284.015625 301.246094 255.289062 278.832031 226.964844 258.734375 C 215.855469 250.800781 203.9375 242.835938 190.382812 241.488281 C 179.601562 240.429688 168.917969 243.710938 158.617188 246.902344 C 146.515625 250.710938 134.453125 254.453125 122.351562 258.261719 C 145.476562 264.589844 167.117188 276.289062 185.03125 292.191406 C 171.867188 285.457031 158.710938 278.777344 145.601562 272.03125 C 134.070312 266.101562 122.132812 260.152344 109.253906 258.984375 C 96.320312 257.824219 82 262.644531 75.660156 273.929688 C 71.671875 280.785156 71.183594 289.007812 71.535156 296.910156 C 71.875 304.070312 72.890625 311.402344 76.75 317.457031 C 74.71875 319.457031 75.1875 322.730469 75.816406 325.507812 C 82.628906 353.648438 98.648438 379.503906 120.804688 398.144531 C 157.433594 429 206.964844 438.429688 254.101562 446.789062 C 259.875 447.828125 265.753906 444.414062 269.292969 439.683594 C 272.847656 435.007812 274.507812 429.195312 276.152344 423.554688 C 211.144531 422.390625 146.976562 395.671875 100.375 350.335938 C 90.824219 341.039062 81.722656 330.535156 77.601562 317.878906 C 121.976562 378.082031 194.824219 415.234375 269.503906 419.6875 C 273.941406 419.964844 278.714844 419.988281 282.332031 417.421875 C 285.9375 414.804688 286.960938 408.515625 283.164062 406.179688 C 277.136719 409.6875 271.109375 413.195312 265.070312 416.648438 C 265.929688 411.550781 271.335938 408.773438 275.65625 405.804688 C 279.976562 402.835938 283.867188 396.980469 280.722656 392.878906 C 272.9375 396.9375 263.425781 397.515625 255.230469 394.378906 C 263.824219 392.644531 272.433594 390.96875 281.027344 389.238281 C 282.222656 386.414062 282.5 383.125 281.757812 380.148438 C 273.453125 379.335938 265.285156 376.765625 257.945312 372.667969 M 241 238.179688 C 248.902344 248 255.6875 258.671875 262.476562 269.347656 C 277.777344 293.480469 293.066406 317.5625 308.371094 341.699219 C 311.253906 340.121094 314.191406 338.53125 317.078125 336.953125 C 315.996094 328.425781 314.859375 319.914062 313.777344 311.386719 C 319.121094 312.765625 319.269531 320.082031 319.191406 325.5625 C 319.117188 331.042969 323.015625 338.410156 328.011719 336.078125 C 325.320312 318.523438 322.628906 300.972656 319.996094 283.40625 C 319.792969 282.132812 319.605469 280.683594 320.378906 279.632812 C 321.140625 278.523438 323.140625 278.484375 323.503906 279.71875 C 325.84375 296.324219 328.144531 312.996094 330.484375 329.601562 C 330.792969 331.996094 331.207031 334.59375 332.757812 336.449219 C 334.324219 338.359375 337.394531 339.152344 339.171875 337.503906 C 333.691406 327.941406 333.242188 315.695312 338.074219 305.761719 C 339.742188 302.300781 342.035156 299.027344 343.003906 295.28125 C 344.078125 291.050781 343.246094 286.542969 342.308594 282.292969 C 333.472656 240.917969 316.074219 201.382812 291.585938 166.878906 C 285.488281 158.277344 278.585938 149.703125 269.054688 145.113281 C 254.117188 137.957031 236.398438 142.296875 220.84375 147.941406 C 207.238281 152.871094 192.535156 160.3125 188.382812 174.160156 C 186.507812 180.261719 186.507812 187.90625 181.089844 191.316406 C 204.207031 202.019531 224.894531 218.207031 241 238.179688 M 808.738281 1152.03125 C 814 1145.207031 819.03125 1138.152344 823.386719 1130.691406 C 829.980469 1119.28125 834.84375 1106.925781 839.667969 1094.632812 C 857.0625 1050.3125 874.441406 1005.9375 891.832031 961.613281 C 897.757812 946.578125 906.75 932.792969 918.164062 921.339844 C 906.6875 922.117188 895.167969 925.265625 885.621094 931.71875 C 879.023438 936.171875 873.574219 942.007812 868.328125 947.964844 C 801.6875 1023.824219 765.898438 1121.855469 740.882812 1219.742188 C 766.269531 1200.21875 789.171875 1177.40625 808.738281 1152.03125 M 421.824219 782.097656 C 433.609375 797.851562 446.816406 813.082031 463.792969 823.121094 C 421.957031 749.761719 396.703125 666.996094 390.511719 582.777344 C 395.210938 586.667969 396.09375 593.460938 396.800781 599.550781 C 403.769531 663.75 422.890625 726.652344 452.789062 783.894531 C 434.25 737.457031 442.742188 684.597656 431.066406 635.9375 C 423.6875 605.0625 408.378906 576.730469 393.164062 548.78125 C 388.355469 568.539062 383.5625 588.351562 378.699219 608.125 C 376.421875 617.484375 374.132812 626.789062 372.886719 636.351562 C 366.035156 688.40625 390.328125 739.964844 421.824219 782.097656 M 654.175781 1044.574219 C 659.832031 1053.230469 664.539062 1062.464844 669.300781 1071.6875 C 674.585938 1082.097656 679.914062 1092.445312 685.199219 1102.859375 C 667.53125 1043.730469 649.828125 984.671875 632.160156 925.542969 C 621.894531 891.132812 611.550781 856.625 597.585938 823.535156 C 576.390625 845.121094 566.042969 876.832031 570.429688 906.78125 C 572.234375 919.148438 576.382812 930.996094 580.839844 942.707031 C 583.128906 948.691406 585.460938 954.605469 588.320312 960.335938 C 604.355469 992.277344 634.621094 1014.652344 654.175781 1044.574219 M 702.488281 668.171875 C 669.8125 667.605469 637.050781 679.183594 611.945312 700.074219 C 586.855469 721.015625 569.554688 751.117188 564.222656 783.363281 C 562.652344 792.777344 562.09375 802.34375 561.710938 811.921875 C 560.792969 836.464844 561.371094 861.035156 563.46875 885.460938 C 564.464844 864.003906 575.132812 844.226562 587.367188 826.589844 C 599.601562 808.953125 613.660156 792.417969 623 773.085938 C 631.960938 754.539062 636.269531 733.925781 646.21875 715.878906 C 658.351562 693.902344 678.757812 676.535156 702.488281 668.171875 M 375.632812 443.179688 C 384.273438 438.621094 374.3125 422.8125 381.375 416.058594 C 381.890625 422.082031 382.476562 428.144531 382.992188 434.167969 C 393.0625 423.792969 398.203125 408.835938 396.710938 394.492188 C 394.875 376.671875 401.304688 358.117188 413.816406 345.300781 C 405.085938 346.949219 397.460938 352.117188 390.308594 357.34375 C 364.082031 376.496094 338.253906 399.117188 306.207031 404.3125 C 297.371094 405.757812 290.699219 413.621094 288.035156 422.101562 C 285.3125 430.59375 285.8125 439.78125 286.351562 448.671875 C 281.289062 441.9375 280.441406 432.261719 284.253906 424.707031 C 277.378906 434.515625 270.488281 444.273438 263.613281 454.085938 C 282.195312 450.449219 301.582031 451.210938 319.8125 456.34375 C 338.664062 461.664062 358.246094 452.324219 375.632812 443.179688 M 333.324219 862.75 C 354.4375 875.328125 369.296875 897.445312 392.023438 906.804688 C 402.015625 910.9375 412.917969 912.253906 423.726562 913.191406 C 450.632812 915.535156 478.222656 915.757812 503.84375 924.515625 C 482.683594 909.191406 460.679688 895.109375 437.902344 882.3125 C 412.722656 868.160156 386.386719 855.613281 358.433594 848.355469 C 330.480469 841.097656 300.632812 839.421875 272.75 847.035156 C 279.054688 847.421875 285.371094 848.097656 291.648438 849.066406 C 306.109375 851.285156 320.644531 855.207031 333.324219 862.75 M 845.574219 969.074219 C 856.21875 956.375 867.210938 943.929688 878.449219 931.773438 C 840.3125 943.941406 810.105469 974.371094 790.28125 1009.125 C 770.453125 1043.875 759.820312 1083.011719 750.082031 1121.8125 C 741.949219 1154.351562 734.25 1187.707031 737.035156 1221.15625 C 752.746094 1146.671875 780.089844 1074.589844 817.8125 1008.4375 C 821.140625 1002.613281 824.585938 996.816406 828.316406 991.234375 C 833.632812 983.476562 839.542969 976.261719 845.574219 969.074219 M 111.214844 396.097656 C 107.121094 392.113281 100.390625 396.023438 96.542969 400.199219 C 78.066406 420.246094 69.605469 449.132812 74.253906 475.96875 C 78.214844 469.929688 84.863281 465.691406 92.039062 464.714844 C 87.886719 461.894531 83.78125 459.003906 79.671875 456.117188 C 102.6875 464.3125 127.628906 467.089844 151.867188 464.003906 C 130.363281 457.960938 108.808594 451.929688 87.320312 445.941406 C 86.3125 442.339844 92.332031 441.824219 95.808594 443.316406 C 118.117188 452.839844 142.027344 458.398438 166.257812 459.683594 C 166.585938 457.996094 164.449219 457.03125 162.757812 456.703125 C 134.339844 451.285156 103.390625 446.78125 82.859375 426.355469 C 119.023438 444.222656 158.417969 455.652344 198.566406 459.941406 C 205.882812 460.710938 213.8125 461.160156 220.097656 457.300781 C 179.886719 456.246094 139.921875 446.910156 103.433594 430.042969 C 100.636719 428.726562 97.363281 426.207031 98.492188 423.339844 C 134.492188 440.785156 173.808594 451.429688 213.742188 454.625 C 225.117188 455.535156 237.050781 455.675781 247.261719 450.730469 C 198.378906 442.054688 146.851562 430.589844 111.214844 396.097656 M 256.277344 454.871094 C 242.605469 452.574219 230.003906 462.484375 216.363281 464.953125 C 202.113281 467.511719 187.550781 461.871094 173.136719 462.863281 C 161.394531 463.710938 150.316406 468.871094 138.636719 470.21875 C 123.886719 471.925781 109.054688 467.503906 94.234375 468.480469 C 89.945312 468.796875 85.398438 469.695312 82.5 472.832031 C 79.597656 475.964844 79.585938 481.945312 83.453125 483.859375 C 100.960938 492.5625 121.582031 491.351562 141.109375 489.894531 C 164.191406 488.1875 187.332031 486.46875 210.429688 484.816406 C 217.65625 484.289062 225.9375 483.152344 229.964844 477.152344 C 236.355469 467.460938 245.625 459.640625 256.277344 454.871094 M 163.277344 226.316406 C 163.113281 229.578125 163.28125 233.042969 165.007812 235.832031 C 166.734375 238.621094 170.359375 240.480469 173.363281 239.160156 C 183.628906 234.660156 195.75 236.019531 206.160156 240.214844 C 216.582031 244.46875 225.597656 251.371094 234.527344 258.179688 C 245.09375 266.246094 255.675781 274.367188 266.242188 282.4375 C 247.699219 245.941406 218.105469 215.179688 182.3125 195.324219 C 179.851562 193.980469 176.296875 192.851562 174.601562 195.054688 C 167.808594 204.042969 163.824219 215.089844 163.277344 226.316406 M 323.917969 824.851562 C 310.460938 828.304688 297.425781 833.207031 284.992188 839.398438 C 320.75 833.394531 357.796875 840.464844 391.464844 853.835938 C 425.144531 867.261719 456.027344 886.78125 486.3125 906.679688 C 455.859375 874.523438 419.058594 848.308594 378.648438 830 C 370.363281 826.253906 361.859375 822.789062 352.808594 821.757812 C 343.175781 820.703125 333.363281 822.390625 323.917969 824.851562 M 413.3125 426.871094 C 417.925781 427.851562 422.46875 429.714844 427.246094 429.503906 C 430.601562 429.363281 433.808594 428.164062 437.082031 427.464844 C 451.539062 424.335938 467.140625 430.695312 481.152344 426.011719 C 495.53125 421.175781 512.4375 424.914062 523.417969 435.347656 C 522.898438 422.832031 510.503906 414.355469 498.742188 410.035156 C 481.625 403.820312 462.914062 402.085938 444.929688 405.113281 C 434.0625 406.949219 422.710938 398.5 412.449219 402.542969 C 402.457031 406.515625 400.28125 419.527344 393.640625 427.960938 C 400.027344 425.914062 406.886719 425.535156 413.3125 426.871094 M 646.503906 673.964844 C 614.453125 674.277344 585.339844 695.929688 569.085938 723.53125 C 552.832031 751.128906 547.632812 783.917969 546.445312 815.941406 C 545.539062 840.308594 546.875 865.609375 558.109375 887.25 C 555.25 856.289062 555.601562 825.050781 559.144531 794.167969 C 560.148438 785.238281 561.488281 776.285156 563.640625 767.585938 C 574.0625 725.515625 606.023438 689.414062 646.503906 673.964844 M 340.335938 344.285156 C 323.203125 338.015625 302.03125 346.492188 294.019531 362.851562 C 292.8125 365.390625 291.804688 368.054688 290.960938 370.679688 C 287.25 381.886719 284.589844 394.101562 287.871094 405.472656 C 288.316406 407.027344 290.167969 408.925781 291.238281 407.683594 C 296.984375 401.199219 306.472656 400.28125 314.863281 398.199219 C 320.222656 396.867188 325.476562 394.875 330.351562 392.285156 C 331.476562 391.71875 332.75 390.367188 331.941406 389.417969 C 328.617188 385.300781 326.949219 379.964844 327.363281 374.691406 C 328.195312 363.679688 337.421875 355.007812 340.335938 344.285156 M 351.773438 269.023438 C 348.917969 228.808594 332.230469 190.761719 311.671875 156.089844 C 308.527344 150.835938 302.117188 148.402344 296.058594 147.605469 C 289.996094 146.8125 283.679688 147.058594 277.796875 145.355469 C 316.0625 183.96875 336.292969 237 348.140625 290.042969 C 352.234375 284.082031 352.316406 276.300781 351.773438 269.023438 M 850.957031 937.964844 C 855.136719 938.824219 858.945312 935.636719 862.492188 933.261719 C 866.652344 930.5625 871.28125 928.839844 876.007812 927.261719 C 899.265625 919.535156 923.664062 915.949219 947.941406 912.339844 C 958.09375 910.855469 968.242188 909.367188 978.394531 907.882812 C 966.417969 900.394531 953.371094 894.378906 939.492188 891.960938 C 925.617188 889.542969 910.828125 890.859375 898.300781 897.359375 C 889.648438 901.863281 882.355469 908.617188 875.230469 915.328125 C 867.097656 922.863281 859.023438 930.386719 850.957031 937.964844 M 233.527344 483.625 C 249.601562 474.75 268.992188 475.050781 287.335938 475.554688 C 293.410156 475.714844 299.484375 475.875 305.574219 476.085938 C 310.429688 476.203125 315.300781 476.375 320.105469 476.042969 C 340.535156 474.765625 360.320312 465.3125 374.160156 450.210938 C 372.347656 448.246094 369.179688 450.066406 367.039062 451.632812 C 353.953125 461.433594 336.308594 462.363281 320.089844 460.699219 C 303.828125 459.105469 287.585938 455.261719 271.375 457.101562 C 255.203125 458.875 238.328125 468.003906 233.527344 483.625 M 365.324219 224.964844 C 365.902344 219.417969 366.519531 213.804688 365.390625 208.335938 C 360.171875 183.367188 341.238281 161.738281 317.167969 153.230469 C 315.464844 152.617188 313.558594 152.113281 311.867188 152.707031 C 317.863281 158.117188 321.992188 165.253906 325.726562 172.429688 C 338.539062 197.183594 348.007812 223.746094 353.738281 251.003906 C 362.296875 246.121094 364.265625 234.828125 365.324219 224.964844 M 390.875 171.605469 C 390.726562 172.160156 390.644531 172.753906 390.832031 173.28125 C 391.035156 173.863281 391.574219 174.191406 392.0625 174.53125 C 401.007812 180.242188 411.039062 184.304688 421.457031 186.429688 C 422.363281 186.609375 423.375 186.757812 424.1875 186.328125 C 425.503906 185.597656 425.546875 183.691406 425.277344 182.148438 C 424.554688 177.613281 423.140625 173.082031 420.332031 169.410156 C 418.875 167.472656 417.09375 165.84375 415.226562 164.355469 C 396.339844 149.15625 367.929688 147.011719 347.019531 159.328125 C 345.421875 160.300781 343.671875 162.515625 345.117188 163.707031 C 356.167969 173.265625 364.199219 186.160156 367.933594 200.289062 C 368.285156 201.699219 369.429688 203.539062 370.773438 202.921875 C 371.125 202.71875 371.394531 202.421875 371.597656 202.082031 C 373.90625 198.40625 373.941406 193.453125 371.699219 189.757812 C 366.574219 181.375 362.246094 172.503906 358.808594 163.296875 C 368.476562 167.507812 367.585938 182.90625 376.464844 188.574219 C 374.691406 181.199219 372.929688 173.875 371.210938 166.484375 C 370.917969 165.292969 370.648438 163.980469 371.3125 162.953125 C 371.921875 161.941406 373.84375 161.808594 374.140625 163 C 375.496094 168.46875 376.855469 173.9375 378.265625 179.390625 C 378.496094 180.3125 378.871094 181.367188 379.777344 181.542969 C 380.265625 181.652344 380.78125 181.410156 381.1875 181.195312 C 385.628906 178.714844 387.515625 173.359375 388.039062 168.285156 C 388.203125 166.636719 388.25 164.957031 389.101562 163.539062 C 389.902344 162.132812 391.773438 161.09375 393.21875 161.828125 C 392.402344 165.019531 391.664062 168.304688 390.875 171.605469 M 507.917969 352.75 C 510.894531 352.699219 514.152344 353.097656 516.605469 351.398438 C 504.449219 338.78125 484.378906 334.566406 468.199219 341.167969 C 455.933594 346.167969 446.675781 356.339844 437.5 365.917969 C 435.453125 368.09375 433.285156 370.242188 430.574219 371.601562 C 428.828125 372.4375 426.796875 373.058594 425.820312 374.679688 C 424.859375 376.355469 426.476562 379.171875 428.140625 378.242188 C 435.765625 373.992188 445.304688 373.292969 453.515625 376.253906 C 454.960938 376.757812 456.394531 377.4375 457.910156 377.519531 C 460.777344 377.726562 463.40625 376.042969 465.816406 374.410156 C 470.839844 371.035156 475.851562 367.605469 480.824219 364.246094 C 489.113281 358.738281 497.957031 352.921875 507.917969 352.75 M 524.964844 425.367188 C 526.160156 422.082031 526.234375 418.441406 525.496094 415.003906 C 522.554688 401.304688 507.820312 393.582031 494.078125 390.785156 C 480.335938 387.988281 465.710938 388.113281 453.246094 381.667969 C 445.988281 377.894531 436.976562 377.484375 429.421875 380.625 C 421.8125 383.777344 415.753906 390.398438 413.265625 398.199219 C 420.292969 395.25 428.160156 399.160156 435.695312 400.335938 C 445.691406 401.933594 455.722656 398.582031 465.828125 398.546875 C 473.648438 398.558594 481.261719 400.519531 488.824219 402.496094 C 503.210938 406.28125 519.386719 411.691406 524.964844 425.367188 M 246.96875 488.679688 C 248.238281 498.421875 237.265625 505.628906 235.652344 515.339844 C 235.148438 518.398438 235.589844 521.566406 236.285156 524.609375 C 238.261719 533.03125 242.023438 541.003906 247.328125 547.792969 C 250.0625 539.355469 255.863281 532.394531 260.964844 525.152344 C 266.0625 517.910156 270.757812 509.730469 270.515625 500.882812 C 270.339844 493.914062 267.46875 485.832031 272.175781 480.699219 C 267.046875 481.109375 261.863281 481.535156 256.734375 481.945312 C 254.542969 482.144531 252.226562 482.316406 250.25 483.382812 C 248.246094 484.339844 246.699219 486.445312 246.96875 488.679688 M 140.679688 527.535156 C 137 527.300781 133.265625 527.078125 129.574219 527.015625 C 136.789062 531.777344 140.925781 542.1875 149.53125 542.582031 C 153.074219 542.738281 156.378906 540.996094 159.910156 540.636719 C 164.011719 540.25 168.054688 541.71875 172.097656 542.726562 C 181.714844 545.113281 191.753906 544.804688 201.65625 544.414062 C 205.136719 544.296875 208.667969 544.167969 211.835938 542.808594 C 218.863281 539.855469 222.488281 530.621094 219.335938 523.703125 C 218.675781 522.199219 219.8125 520.539062 220.65625 519.0625 C 221.496094 517.589844 221.40625 515.140625 219.742188 514.921875 C 219.027344 514.8125 218.375 515.203125 217.832031 515.570312 C 212.347656 518.941406 206.917969 522.300781 201.433594 525.675781 C 196.894531 528.46875 192.207031 531.355469 186.929688 532.320312 C 180.164062 533.542969 173.238281 531.582031 166.476562 530.269531 C 157.902344 528.605469 149.257812 528.050781 140.679688 527.535156 M 449.015625 322.480469 C 447.933594 322.976562 446.753906 324.019531 447.308594 325.089844 C 447.632812 325.699219 448.417969 325.847656 449.105469 326.078125 C 451.769531 327.085938 452.847656 330.496094 452.152344 333.253906 C 451.457031 336.011719 449.546875 338.269531 447.648438 340.351562 C 440.179688 348.46875 431.953125 356.546875 428.582031 367.039062 C 430.660156 368.246094 432.910156 365.964844 434.269531 364.019531 C 442.621094 352.058594 454.058594 341.863281 467.8125 336.839844 C 481.566406 331.816406 497.628906 332.371094 510.046875 340.035156 C 515.617188 343.480469 520.359375 348.226562 525.941406 351.726562 C 528.148438 342.09375 522.929688 331.261719 513.992188 326.984375 C 504.867188 322.640625 494.121094 324.964844 484.085938 324.121094 C 472.207031 323.046875 459.835938 317.667969 449.015625 322.480469 M 401.941406 405.378906 C 407.355469 397.542969 412.484375 389.484375 417.328125 381.214844 C 419.253906 377.863281 421.167969 374.457031 422.378906 370.761719 C 427.207031 355.714844 438.078125 343.472656 448.675781 331.761719 C 449.4375 330.882812 448.546875 329.378906 447.394531 329.148438 C 446.246094 328.914062 445.082031 329.550781 444.078125 330.144531 C 441.113281 331.855469 438.148438 333.570312 435.183594 335.28125 C 428.855469 338.980469 422.425781 342.703125 417.21875 347.902344 C 410.648438 354.535156 406.480469 363.214844 403.945312 372.234375 C 400.980469 382.972656 400.296875 394.351562 401.941406 405.378906 M 231.46875 484.136719 C 229.695312 484.632812 228.300781 486.1875 227.878906 487.957031 C 228.960938 489.070312 230.90625 489.046875 231.949219 487.925781 C 232.996094 486.804688 232.917969 484.867188 231.796875 483.824219 Z M 231.46875 484.136719 " fill-opacity="1" fill-rule="nonzero"/></g></g></g></g></g></g></g></svg>