<svg xmlns="http://www.w3.org/2000/svg" xmlns:xlink="http://www.w3.org/1999/xlink" width="500" zoomAndPan="magnify" viewBox="0 0 375 374.999991" height="500" preserveAspectRatio="xMidYMid meet" version="1.0"><defs><g/><clipPath id="41c57e39c9"><path d="M 6.414062 5.84375 L 37.167969 5.84375 L 37.167969 37.15625 L 6.414062 37.15625 Z M 6.414062 5.84375 " clip-rule="nonzero"/></clipPath><clipPath id="cf9fbd4e20"><path d="M 0.414062 0.84375 L 31.167969 0.84375 L 31.167969 32.15625 L 0.414062 32.15625 Z M 0.414062 0.84375 " clip-rule="nonzero"/></clipPath><clipPath id="5ed61d5076"><rect x="0" width="32" y="0" height="33"/></clipPath><clipPath id="5e03d833f5"><path d="M 25.957031 25.007812 L 37.167969 25.007812 L 37.167969 42.613281 L 25.957031 42.613281 Z M 25.957031 25.007812 " clip-rule="nonzero"/></clipPath><clipPath id="c58aa6501a"><path d="M 25.957031 33.824219 L 37.167969 25.039062 L 37.167969 42.613281 Z M 25.957031 33.824219 " clip-rule="nonzero"/></clipPath><clipPath id="3d7dae9ff0"><path d="M 0.957031 0.0078125 L 12.167969 0.0078125 L 12.167969 17.613281 L 0.957031 17.613281 Z M 0.957031 0.0078125 " clip-rule="nonzero"/></clipPath><clipPath id="81ceab74ea"><path d="M 0.957031 8.824219 L 12.167969 0.0390625 L 12.167969 17.613281 Z M 0.957031 8.824219 " clip-rule="nonzero"/></clipPath><clipPath id="2db7670587"><rect x="0" width="13" y="0" height="18"/></clipPath><clipPath id="34d1043bd6"><path d="M 0.605469 0.105469 L 6.515625 0.105469 L 6.515625 5.734375 L 0.605469 5.734375 Z M 0.605469 0.105469 " clip-rule="nonzero"/></clipPath><clipPath id="48f6c7125f"><path d="M 0.605469 0.210938 L 6.414062 0.210938 L 6.414062 5.734375 L 0.605469 5.734375 Z M 0.605469 0.210938 " clip-rule="nonzero"/></clipPath><clipPath id="c7f76d8393"><rect x="0" width="7" y="0" height="6"/></clipPath><clipPath id="941b7bf18c"><path d="M 37.167969 37.15625 L 43 37.15625 L 43 42.789062 L 37.167969 42.789062 Z M 37.167969 37.15625 " clip-rule="nonzero"/></clipPath><clipPath id="d5b177b312"><rect x="0" width="44" y="0" height="44"/></clipPath><clipPath id="57de9c3dbe"><rect x="0" width="221" y="0" height="113"/></clipPath></defs><g transform="matrix(1, 0, 0, 1, 81, 166)"><g clip-path="url(#d5b177b312)"><g clip-path="url(#41c57e39c9)"><g transform="matrix(1, 0, 0, 1, 6, 5)"><g clip-path="url(#5ed61d5076)"><g clip-path="url(#cf9fbd4e20)"><path fill="#ffffff" d="M 0.414062 0.84375 L 31.167969 0.84375 L 31.167969 32.195312 L 0.414062 32.195312 Z M 0.414062 0.84375 " fill-opacity="1" fill-rule="nonzero"/></g></g></g></g><g clip-path="url(#5e03d833f5)"><g clip-path="url(#c58aa6501a)"><g transform="matrix(1, 0, 0, 1, 25, 25)"><g clip-path="url(#2db7670587)"><g clip-path="url(#3d7dae9ff0)"><g clip-path="url(#81ceab74ea)"><path fill="#ffffff" d="M 0.957031 17.613281 L 0.957031 0.0546875 L 12.167969 0.0546875 L 12.167969 17.613281 Z M 0.957031 17.613281 " fill-opacity="1" fill-rule="nonzero"/></g></g></g></g></g></g><g clip-path="url(#34d1043bd6)"><g><g clip-path="url(#c7f76d8393)"><g clip-path="url(#48f6c7125f)"><path fill="#ffffff" d="M 6.414062 0.109375 L 0.605469 5.835938 L 0.605469 0.109375 Z M 6.414062 0.109375 " fill-opacity="1" fill-rule="nonzero"/></g></g></g></g><g clip-path="url(#941b7bf18c)"><path fill="#ffffff" d="M 37.167969 42.886719 L 42.976562 37.164062 L 42.976562 42.886719 Z M 37.167969 42.886719 " fill-opacity="1" fill-rule="nonzero"/></g></g></g><g transform="matrix(1, 0, 0, 1, 79, 131)"><g clip-path="url(#57de9c3dbe)"><g fill="#171717" fill-opacity="1"><g transform="translate(0.342595, 49.333574)"><g><path d="M 14.171875 0.640625 C 11.765625 0.640625 9.632812 0.09375 7.78125 -1 C 5.925781 -2.09375 4.46875 -3.601562 3.40625 -5.53125 C 2.34375 -7.457031 1.8125 -9.675781 1.8125 -12.1875 C 1.8125 -14.6875 2.34375 -16.890625 3.40625 -18.796875 C 4.46875 -20.710938 5.925781 -22.21875 7.78125 -23.3125 C 9.632812 -24.414062 11.765625 -24.96875 14.171875 -24.96875 C 15.679688 -24.96875 17.082031 -24.742188 18.375 -24.296875 C 19.675781 -23.847656 20.851562 -23.222656 21.90625 -22.421875 L 21.90625 -34.265625 L 28.953125 -34.265625 L 28.953125 0 L 23.71875 0 L 22.875 -2.78125 C 21.789062 -1.695312 20.507812 -0.851562 19.03125 -0.25 C 17.550781 0.34375 15.929688 0.640625 14.171875 0.640625 Z M 8.75 -12.1875 C 8.75 -10.207031 9.375 -8.582031 10.625 -7.3125 C 11.875 -6.050781 13.488281 -5.421875 15.46875 -5.421875 C 17.445312 -5.421875 19.050781 -6.050781 20.28125 -7.3125 C 21.519531 -8.582031 22.140625 -10.207031 22.140625 -12.1875 C 22.140625 -14.15625 21.519531 -15.769531 20.28125 -17.03125 C 19.050781 -18.300781 17.445312 -18.9375 15.46875 -18.9375 C 13.488281 -18.9375 11.875 -18.300781 10.625 -17.03125 C 9.375 -15.769531 8.75 -14.15625 8.75 -12.1875 Z M 8.75 -12.1875 "/></g></g></g><g fill="#171717" fill-opacity="1"><g transform="translate(28.723252, 49.333574)"><g><path d="M 3.515625 0 L 3.515625 -24.3125 L 10.5625 -24.3125 L 10.5625 0 Z M 2.5 -32.1875 C 2.5 -33.476562 2.921875 -34.535156 3.765625 -35.359375 C 4.617188 -36.179688 5.710938 -36.59375 7.046875 -36.59375 C 8.398438 -36.59375 9.492188 -36.179688 10.328125 -35.359375 C 11.160156 -34.535156 11.578125 -33.476562 11.578125 -32.1875 C 11.578125 -30.882812 11.160156 -29.820312 10.328125 -29 C 9.492188 -28.1875 8.398438 -27.78125 7.046875 -27.78125 C 5.710938 -27.78125 4.617188 -28.1875 3.765625 -29 C 2.921875 -29.820312 2.5 -30.882812 2.5 -32.1875 Z M 2.5 -32.1875 "/></g></g></g><g fill="#171717" fill-opacity="1"><g transform="translate(38.722102, 49.333574)"><g><path d="M 15.375 10.28125 C 11.851562 10.28125 8.988281 9.476562 6.78125 7.875 C 4.570312 6.269531 3.316406 4.0625 3.015625 1.25 L 9.859375 1.25 C 10.109375 2.300781 10.703125 3.117188 11.640625 3.703125 C 12.585938 4.285156 13.785156 4.578125 15.234375 4.578125 C 19.128906 4.578125 21.078125 2.601562 21.078125 -1.34375 L 21.078125 -3.0625 C 20.085938 -2.289062 18.953125 -1.691406 17.671875 -1.265625 C 16.390625 -0.847656 15.019531 -0.640625 13.5625 -0.640625 C 11.28125 -0.640625 9.25 -1.15625 7.46875 -2.1875 C 5.695312 -3.226562 4.3125 -4.664062 3.3125 -6.5 C 2.3125 -8.34375 1.8125 -10.453125 1.8125 -12.828125 C 1.8125 -15.203125 2.3125 -17.300781 3.3125 -19.125 C 4.3125 -20.945312 5.695312 -22.375 7.46875 -23.40625 C 9.25 -24.445312 11.28125 -24.96875 13.5625 -24.96875 C 15.289062 -24.96875 16.890625 -24.679688 18.359375 -24.109375 C 19.828125 -23.535156 21.085938 -22.707031 22.140625 -21.625 L 22.875 -24.3125 L 28.109375 -24.3125 L 28.109375 -1.34375 C 28.109375 1.0625 27.59375 3.132812 26.5625 4.875 C 25.53125 6.625 24.054688 7.960938 22.140625 8.890625 C 20.222656 9.816406 17.96875 10.28125 15.375 10.28125 Z M 8.75 -12.828125 C 8.75 -10.941406 9.332031 -9.410156 10.5 -8.234375 C 11.675781 -7.066406 13.191406 -6.484375 15.046875 -6.484375 C 16.898438 -6.484375 18.421875 -7.066406 19.609375 -8.234375 C 20.796875 -9.410156 21.390625 -10.941406 21.390625 -12.828125 C 21.390625 -14.679688 20.796875 -16.191406 19.609375 -17.359375 C 18.421875 -18.535156 16.898438 -19.125 15.046875 -19.125 C 13.191406 -19.125 11.675781 -18.535156 10.5 -17.359375 C 9.332031 -16.191406 8.75 -14.679688 8.75 -12.828125 Z M 8.75 -12.828125 "/></g></g></g><g fill="#171717" fill-opacity="1"><g transform="translate(66.315634, 49.333574)"><g><path d="M 3.515625 0 L 3.515625 -24.3125 L 10.5625 -24.3125 L 10.5625 0 Z M 2.5 -32.1875 C 2.5 -33.476562 2.921875 -34.535156 3.765625 -35.359375 C 4.617188 -36.179688 5.710938 -36.59375 7.046875 -36.59375 C 8.398438 -36.59375 9.492188 -36.179688 10.328125 -35.359375 C 11.160156 -34.535156 11.578125 -33.476562 11.578125 -32.1875 C 11.578125 -30.882812 11.160156 -29.820312 10.328125 -29 C 9.492188 -28.1875 8.398438 -27.78125 7.046875 -27.78125 C 5.710938 -27.78125 4.617188 -28.1875 3.765625 -29 C 2.921875 -29.820312 2.5 -30.882812 2.5 -32.1875 Z M 2.5 -32.1875 "/></g></g></g><g fill="#171717" fill-opacity="1"><g transform="translate(76.314485, 49.333574)"><g><path d="M 15.234375 0 C 12.148438 0 9.78125 -0.789062 8.125 -2.375 C 6.476562 -3.96875 5.65625 -6.25 5.65625 -9.21875 L 5.65625 -18.578125 L 0.921875 -18.578125 L 0.921875 -24.3125 L 3.109375 -24.3125 C 4.429688 -24.3125 5.332031 -24.523438 5.8125 -24.953125 C 6.289062 -25.390625 6.625 -26.226562 6.8125 -27.46875 L 7.21875 -30.609375 L 12.6875 -30.609375 L 12.6875 -24.3125 L 19.359375 -24.3125 L 19.359375 -18.578125 L 12.6875 -18.578125 L 12.6875 -10.28125 C 12.6875 -7.5 14.046875 -6.109375 16.765625 -6.109375 L 19.6875 -6.109375 L 19.6875 0 Z M 15.234375 0 "/></g></g></g><g fill="#171717" fill-opacity="1"><g transform="translate(93.860524, 49.333574)"><g><path d="M 11.625 0.46875 C 8.75 0.46875 6.476562 -0.203125 4.8125 -1.546875 C 3.144531 -2.890625 2.3125 -4.734375 2.3125 -7.078125 C 2.3125 -9.335938 3.0625 -11.140625 4.5625 -12.484375 C 6.0625 -13.828125 8.078125 -14.5 10.609375 -14.5 L 19.40625 -14.5 L 19.40625 -15.609375 C 19.40625 -16.804688 18.972656 -17.769531 18.109375 -18.5 C 17.242188 -19.226562 16.117188 -19.59375 14.734375 -19.59375 C 13.585938 -19.59375 12.613281 -19.328125 11.8125 -18.796875 C 11.007812 -18.273438 10.5 -17.582031 10.28125 -16.71875 L 3.515625 -16.71875 C 3.953125 -19.375 5.148438 -21.410156 7.109375 -22.828125 C 9.066406 -24.253906 11.59375 -24.96875 14.6875 -24.96875 C 18.320312 -24.96875 21.164062 -24.046875 23.21875 -22.203125 C 25.28125 -20.367188 26.3125 -17.847656 26.3125 -14.640625 L 26.3125 0 L 21.078125 0 L 20.28125 -2.828125 C 18.15625 -0.628906 15.269531 0.46875 11.625 0.46875 Z M 9.265625 -7.359375 C 9.265625 -6.523438 9.625 -5.851562 10.34375 -5.34375 C 11.070312 -4.832031 12.039062 -4.578125 13.25 -4.578125 C 15.007812 -4.578125 16.46875 -5.085938 17.625 -6.109375 C 18.78125 -7.128906 19.390625 -8.457031 19.453125 -10.09375 L 12.78125 -10.09375 C 11.726562 -10.09375 10.878906 -9.84375 10.234375 -9.34375 C 9.585938 -8.851562 9.265625 -8.191406 9.265625 -7.359375 Z M 9.265625 -7.359375 "/></g></g></g><g fill="#171717" fill-opacity="1"><g transform="translate(119.138973, 49.333574)"><g><path d="M 3.515625 0 L 3.515625 -34.265625 L 10.5625 -34.265625 L 10.5625 0 Z M 3.515625 0 "/></g></g></g><g fill="#171717" fill-opacity="1"><g transform="translate(129.151366, 49.333574)"><g/></g></g><g fill="#171717" fill-opacity="1"><g transform="translate(0.342595, 94.720843)"><g><path d="M 3.515625 0 L 3.515625 -24.3125 L 10.5625 -24.3125 L 10.5625 0 Z M 2.5 -32.1875 C 2.5 -33.476562 2.921875 -34.535156 3.765625 -35.359375 C 4.617188 -36.179688 5.710938 -36.59375 7.046875 -36.59375 C 8.398438 -36.59375 9.492188 -36.179688 10.328125 -35.359375 C 11.160156 -34.535156 11.578125 -33.476562 11.578125 -32.1875 C 11.578125 -30.882812 11.160156 -29.820312 10.328125 -29 C 9.492188 -28.1875 8.398438 -27.78125 7.046875 -27.78125 C 5.710938 -27.78125 4.617188 -28.1875 3.765625 -29 C 2.921875 -29.820312 2.5 -30.882812 2.5 -32.1875 Z M 2.5 -32.1875 "/></g></g></g><g fill="#171717" fill-opacity="1"><g transform="translate(10.341445, 94.720843)"><g><path d="M 3.515625 0 L 3.515625 -24.3125 L 8.75 -24.3125 L 9.5 -21.578125 C 10.476562 -22.722656 11.671875 -23.570312 13.078125 -24.125 C 14.484375 -24.6875 15.988281 -24.96875 17.59375 -24.96875 C 20.78125 -24.96875 23.273438 -23.976562 25.078125 -22 C 26.878906 -20.019531 27.78125 -17.347656 27.78125 -13.984375 L 27.78125 0 L 20.75 0 L 20.75 -13.25 C 20.75 -15.039062 20.320312 -16.4375 19.46875 -17.4375 C 18.625 -18.4375 17.445312 -18.9375 15.9375 -18.9375 C 14.320312 -18.9375 13.019531 -18.378906 12.03125 -17.265625 C 11.050781 -16.160156 10.5625 -14.648438 10.5625 -12.734375 L 10.5625 0 Z M 3.515625 0 "/></g></g></g><g fill="#171717" fill-opacity="1"><g transform="translate(37.101543, 94.720843)"><g><path d="M 10.515625 0 L 0.421875 -24.3125 L 8.109375 -24.3125 L 10.84375 -16.671875 L 14.078125 -8.421875 L 17.28125 -16.671875 L 20.046875 -24.3125 L 27.6875 -24.3125 L 17.546875 0 Z M 10.515625 0 "/></g></g></g><g fill="#171717" fill-opacity="1"><g transform="translate(61.12984, 94.720843)"><g><path d="M 3.515625 0 L 3.515625 -24.3125 L 10.5625 -24.3125 L 10.5625 0 Z M 2.5 -32.1875 C 2.5 -33.476562 2.921875 -34.535156 3.765625 -35.359375 C 4.617188 -36.179688 5.710938 -36.59375 7.046875 -36.59375 C 8.398438 -36.59375 9.492188 -36.179688 10.328125 -35.359375 C 11.160156 -34.535156 11.578125 -33.476562 11.578125 -32.1875 C 11.578125 -30.882812 11.160156 -29.820312 10.328125 -29 C 9.492188 -28.1875 8.398438 -27.78125 7.046875 -27.78125 C 5.710938 -27.78125 4.617188 -28.1875 3.765625 -29 C 2.921875 -29.820312 2.5 -30.882812 2.5 -32.1875 Z M 2.5 -32.1875 "/></g></g></g><g fill="#171717" fill-opacity="1"><g transform="translate(71.128691, 94.720843)"><g><path d="M 15.234375 0 C 12.148438 0 9.78125 -0.789062 8.125 -2.375 C 6.476562 -3.96875 5.65625 -6.25 5.65625 -9.21875 L 5.65625 -18.578125 L 0.921875 -18.578125 L 0.921875 -24.3125 L 3.109375 -24.3125 C 4.429688 -24.3125 5.332031 -24.523438 5.8125 -24.953125 C 6.289062 -25.390625 6.625 -26.226562 6.8125 -27.46875 L 7.21875 -30.609375 L 12.6875 -30.609375 L 12.6875 -24.3125 L 19.359375 -24.3125 L 19.359375 -18.578125 L 12.6875 -18.578125 L 12.6875 -10.28125 C 12.6875 -7.5 14.046875 -6.109375 16.765625 -6.109375 L 19.6875 -6.109375 L 19.6875 0 Z M 15.234375 0 "/></g></g></g><g fill="#171717" fill-opacity="1"><g transform="translate(88.67473, 94.720843)"><g><path d="M 11.625 0.46875 C 8.75 0.46875 6.476562 -0.203125 4.8125 -1.546875 C 3.144531 -2.890625 2.3125 -4.734375 2.3125 -7.078125 C 2.3125 -9.335938 3.0625 -11.140625 4.5625 -12.484375 C 6.0625 -13.828125 8.078125 -14.5 10.609375 -14.5 L 19.40625 -14.5 L 19.40625 -15.609375 C 19.40625 -16.804688 18.972656 -17.769531 18.109375 -18.5 C 17.242188 -19.226562 16.117188 -19.59375 14.734375 -19.59375 C 13.585938 -19.59375 12.613281 -19.328125 11.8125 -18.796875 C 11.007812 -18.273438 10.5 -17.582031 10.28125 -16.71875 L 3.515625 -16.71875 C 3.953125 -19.375 5.148438 -21.410156 7.109375 -22.828125 C 9.066406 -24.253906 11.59375 -24.96875 14.6875 -24.96875 C 18.320312 -24.96875 21.164062 -24.046875 23.21875 -22.203125 C 25.28125 -20.367188 26.3125 -17.847656 26.3125 -14.640625 L 26.3125 0 L 21.078125 0 L 20.28125 -2.828125 C 18.15625 -0.628906 15.269531 0.46875 11.625 0.46875 Z M 9.265625 -7.359375 C 9.265625 -6.523438 9.625 -5.851562 10.34375 -5.34375 C 11.070312 -4.832031 12.039062 -4.578125 13.25 -4.578125 C 15.007812 -4.578125 16.46875 -5.085938 17.625 -6.109375 C 18.78125 -7.128906 19.390625 -8.457031 19.453125 -10.09375 L 12.78125 -10.09375 C 11.726562 -10.09375 10.878906 -9.84375 10.234375 -9.34375 C 9.585938 -8.851562 9.265625 -8.191406 9.265625 -7.359375 Z M 9.265625 -7.359375 "/></g></g></g><g fill="#171717" fill-opacity="1"><g transform="translate(113.953179, 94.720843)"><g><path d="M 15.234375 0 C 12.148438 0 9.78125 -0.789062 8.125 -2.375 C 6.476562 -3.96875 5.65625 -6.25 5.65625 -9.21875 L 5.65625 -18.578125 L 0.921875 -18.578125 L 0.921875 -24.3125 L 3.109375 -24.3125 C 4.429688 -24.3125 5.332031 -24.523438 5.8125 -24.953125 C 6.289062 -25.390625 6.625 -26.226562 6.8125 -27.46875 L 7.21875 -30.609375 L 12.6875 -30.609375 L 12.6875 -24.3125 L 19.359375 -24.3125 L 19.359375 -18.578125 L 12.6875 -18.578125 L 12.6875 -10.28125 C 12.6875 -7.5 14.046875 -6.109375 16.765625 -6.109375 L 19.6875 -6.109375 L 19.6875 0 Z M 15.234375 0 "/></g></g></g><g fill="#171717" fill-opacity="1"><g transform="translate(131.499218, 94.720843)"><g><path d="M 3.515625 0 L 3.515625 -24.3125 L 10.5625 -24.3125 L 10.5625 0 Z M 2.5 -32.1875 C 2.5 -33.476562 2.921875 -34.535156 3.765625 -35.359375 C 4.617188 -36.179688 5.710938 -36.59375 7.046875 -36.59375 C 8.398438 -36.59375 9.492188 -36.179688 10.328125 -35.359375 C 11.160156 -34.535156 11.578125 -33.476562 11.578125 -32.1875 C 11.578125 -30.882812 11.160156 -29.820312 10.328125 -29 C 9.492188 -28.1875 8.398438 -27.78125 7.046875 -27.78125 C 5.710938 -27.78125 4.617188 -28.1875 3.765625 -29 C 2.921875 -29.820312 2.5 -30.882812 2.5 -32.1875 Z M 2.5 -32.1875 "/></g></g></g><g fill="#171717" fill-opacity="1"><g transform="translate(141.498069, 94.720843)"><g><path d="M 15.46875 0.640625 C 12.78125 0.640625 10.410156 0.101562 8.359375 -0.96875 C 6.304688 -2.050781 4.703125 -3.554688 3.546875 -5.484375 C 2.390625 -7.410156 1.8125 -9.644531 1.8125 -12.1875 C 1.8125 -14.71875 2.390625 -16.9375 3.546875 -18.84375 C 4.703125 -20.757812 6.304688 -22.257812 8.359375 -23.34375 C 10.410156 -24.425781 12.78125 -24.96875 15.46875 -24.96875 C 18.15625 -24.96875 20.523438 -24.425781 22.578125 -23.34375 C 24.628906 -22.257812 26.222656 -20.757812 27.359375 -18.84375 C 28.503906 -16.9375 29.078125 -14.71875 29.078125 -12.1875 C 29.078125 -9.644531 28.503906 -7.410156 27.359375 -5.484375 C 26.222656 -3.554688 24.628906 -2.050781 22.578125 -0.96875 C 20.523438 0.101562 18.15625 0.640625 15.46875 0.640625 Z M 8.75 -12.1875 C 8.75 -10.207031 9.375 -8.582031 10.625 -7.3125 C 11.875 -6.050781 13.488281 -5.421875 15.46875 -5.421875 C 17.445312 -5.421875 19.050781 -6.050781 20.28125 -7.3125 C 21.519531 -8.582031 22.140625 -10.207031 22.140625 -12.1875 C 22.140625 -14.1875 21.519531 -15.8125 20.28125 -17.0625 C 19.050781 -18.3125 17.445312 -18.9375 15.46875 -18.9375 C 13.488281 -18.9375 11.875 -18.3125 10.625 -17.0625 C 9.375 -15.8125 8.75 -14.1875 8.75 -12.1875 Z M 8.75 -12.1875 "/></g></g></g><g fill="#171717" fill-opacity="1"><g transform="translate(168.304477, 94.720843)"><g><path d="M 3.515625 0 L 3.515625 -24.3125 L 8.75 -24.3125 L 9.5 -21.578125 C 10.476562 -22.722656 11.671875 -23.570312 13.078125 -24.125 C 14.484375 -24.6875 15.988281 -24.96875 17.59375 -24.96875 C 20.78125 -24.96875 23.273438 -23.976562 25.078125 -22 C 26.878906 -20.019531 27.78125 -17.347656 27.78125 -13.984375 L 27.78125 0 L 20.75 0 L 20.75 -13.25 C 20.75 -15.039062 20.320312 -16.4375 19.46875 -17.4375 C 18.625 -18.4375 17.445312 -18.9375 15.9375 -18.9375 C 14.320312 -18.9375 13.019531 -18.378906 12.03125 -17.265625 C 11.050781 -16.160156 10.5625 -14.648438 10.5625 -12.734375 L 10.5625 0 Z M 3.515625 0 "/></g></g></g><g fill="#171717" fill-opacity="1"><g transform="translate(195.064574, 94.720843)"><g><path d="M 12.875 0.640625 C 10.65625 0.640625 8.71875 0.285156 7.0625 -0.421875 C 5.40625 -1.128906 4.125 -2.113281 3.21875 -3.375 C 2.3125 -4.644531 1.859375 -6.128906 1.859375 -7.828125 L 8.75 -7.828125 C 8.78125 -6.835938 9.164062 -6.046875 9.90625 -5.453125 C 10.644531 -4.867188 11.664062 -4.578125 12.96875 -4.578125 C 14.082031 -4.578125 14.945312 -4.785156 15.5625 -5.203125 C 16.175781 -5.617188 16.484375 -6.1875 16.484375 -6.90625 C 16.484375 -7.675781 16.066406 -8.316406 15.234375 -8.828125 C 14.398438 -9.335938 13.039062 -9.742188 11.15625 -10.046875 C 8.070312 -10.609375 5.800781 -11.503906 4.34375 -12.734375 C 2.894531 -13.972656 2.171875 -15.59375 2.171875 -17.59375 C 2.171875 -19.976562 3.054688 -21.800781 4.828125 -23.0625 C 6.609375 -24.332031 9.132812 -24.96875 12.40625 -24.96875 C 15.65625 -24.96875 18.195312 -24.269531 20.03125 -22.875 C 21.863281 -21.488281 22.859375 -19.515625 23.015625 -16.953125 L 16.296875 -16.953125 C 16.234375 -17.878906 15.851562 -18.597656 15.15625 -19.109375 C 14.46875 -19.617188 13.535156 -19.875 12.359375 -19.875 C 11.316406 -19.875 10.492188 -19.671875 9.890625 -19.265625 C 9.285156 -18.859375 8.984375 -18.300781 8.984375 -17.59375 C 8.984375 -16.851562 9.375 -16.273438 10.15625 -15.859375 C 10.945312 -15.441406 12.378906 -15.019531 14.453125 -14.59375 C 20.441406 -13.382812 23.4375 -10.804688 23.4375 -6.859375 C 23.4375 -4.535156 22.5 -2.703125 20.625 -1.359375 C 18.757812 -0.0234375 16.175781 0.640625 12.875 0.640625 Z M 12.875 0.640625 "/></g></g></g></g></g></svg>